<?xml version="1.0" encoding="UTF-8" standalone="no"?>
<!DOCTYPE svg PUBLIC "-//W3C//DTD SVG 1.1//EN"
 "http://www.w3.org/Graphics/SVG/1.1/DTD/svg11.dtd">
<!-- Generated by graphviz version 14.1.2 (0)
 -->
<!-- Pages: 1 -->
<svg width="1296pt" height="388pt"
 viewBox="0.00 0.00 1296.00 388.00" xmlns="http://www.w3.org/2000/svg" xmlns:xlink="http://www.w3.org/1999/xlink">
<g id="graph0" class="graph" transform="scale(1 1) rotate(0) translate(4 383.74)">
<polygon fill="white" stroke="none" points="-4,4 -4,-383.74 1291.81,-383.74 1291.81,4 -4,4"/>
<g id="clust1" class="cluster">
<title>cluster49</title>
<path fill="none" stroke="black" d="M170.95,-144.52C170.95,-144.52 405.95,-144.52 405.95,-144.52 411.95,-144.52 417.95,-150.52 417.95,-156.52 417.95,-156.52 417.95,-359.74 417.95,-359.74 417.95,-365.74 411.95,-371.74 405.95,-371.74 405.95,-371.74 170.95,-371.74 170.95,-371.74 164.95,-371.74 158.95,-365.74 158.95,-359.74 158.95,-359.74 158.95,-156.52 158.95,-156.52 158.95,-150.52 164.95,-144.52 170.95,-144.52"/>
<text xml:space="preserve" text-anchor="middle" x="403.2" y="-151.72" font-family="Times New Roman,serif" font-size="14.00">49</text>
</g>
<g id="clust2" class="cluster">
<title>cluster483</title>
<path fill="none" stroke="black" d="M291.95,-8C291.95,-8 519.95,-8 519.95,-8 525.95,-8 531.95,-14 531.95,-20 531.95,-20 531.95,-124.52 531.95,-124.52 531.95,-130.52 525.95,-136.52 519.95,-136.52 519.95,-136.52 291.95,-136.52 291.95,-136.52 285.95,-136.52 279.95,-130.52 279.95,-124.52 279.95,-124.52 279.95,-20 279.95,-20 279.95,-14 285.95,-8 291.95,-8"/>
<text xml:space="preserve" text-anchor="middle" x="513.83" y="-15.2" font-family="Times New Roman,serif" font-size="14.00">483</text>
</g>
<!-- gamma_mid_att -->
<g id="node1" class="node">
<title>gamma_mid_att</title>
<ellipse fill="none" stroke="black" cx="74.95" cy="-323.08" rx="74.95" ry="40.66"/>
<text xml:space="preserve" text-anchor="middle" x="74.95" y="-334.53" font-family="Times New Roman,serif" font-size="14.00">gamma_mid_att</text>
<text xml:space="preserve" text-anchor="middle" x="74.95" y="-318.03" font-family="Times New Roman,serif" font-size="14.00">~</text>
<text xml:space="preserve" text-anchor="middle" x="74.95" y="-301.53" font-family="Times New Roman,serif" font-size="14.00">Normal</text>
</g>
<!-- alpha -->
<g id="node11" class="node">
<title>alpha</title>
<polygon fill="none" stroke="black" points="302.08,-234.52 211.83,-234.52 211.83,-177.02 302.08,-177.02 302.08,-234.52"/>
<text xml:space="preserve" text-anchor="middle" x="256.95" y="-217.22" font-family="Times New Roman,serif" font-size="14.00">alpha</text>
<text xml:space="preserve" text-anchor="middle" x="256.95" y="-200.72" font-family="Times New Roman,serif" font-size="14.00">~</text>
<text xml:space="preserve" text-anchor="middle" x="256.95" y="-184.22" font-family="Times New Roman,serif" font-size="14.00">Deterministic</text>
</g>
<!-- gamma_mid_att&#45;&gt;alpha -->
<g id="edge1" class="edge">
<title>gamma_mid_att&#45;&gt;alpha</title>
<path fill="none" stroke="black" d="M123.25,-291.48C147.81,-275.92 177.73,-256.96 203.04,-240.93"/>
<polygon fill="black" stroke="black" points="204.64,-244.06 211.22,-235.75 200.89,-238.14 204.64,-244.06"/>
</g>
<!-- gamma_att -->
<g id="node2" class="node">
<title>gamma_att</title>
<ellipse fill="none" stroke="black" cx="620.95" cy="-323.08" rx="54.8" ry="40.66"/>
<text xml:space="preserve" text-anchor="middle" x="620.95" y="-334.53" font-family="Times New Roman,serif" font-size="14.00">gamma_att</text>
<text xml:space="preserve" text-anchor="middle" x="620.95" y="-318.03" font-family="Times New Roman,serif" font-size="14.00">~</text>
<text xml:space="preserve" text-anchor="middle" x="620.95" y="-301.53" font-family="Times New Roman,serif" font-size="14.00">Normal</text>
</g>
<!-- gamma_att&#45;&gt;alpha -->
<g id="edge2" class="edge">
<title>gamma_att&#45;&gt;alpha</title>
<path fill="none" stroke="black" d="M581.61,-294.27C573.73,-289.7 565.3,-285.47 556.95,-282.43 453.16,-244.53 413.18,-288.37 310.95,-246.43 307.12,-244.85 303.31,-242.95 299.59,-240.84"/>
<polygon fill="black" stroke="black" points="301.62,-237.99 291.29,-235.66 297.92,-243.92 301.62,-237.99"/>
</g>
<!-- gamma_0 -->
<g id="node3" class="node">
<title>gamma_0</title>
<ellipse fill="none" stroke="black" cx="743.95" cy="-323.08" rx="50.03" ry="40.66"/>
<text xml:space="preserve" text-anchor="middle" x="743.95" y="-334.53" font-family="Times New Roman,serif" font-size="14.00">gamma_0</text>
<text xml:space="preserve" text-anchor="middle" x="743.95" y="-318.03" font-family="Times New Roman,serif" font-size="14.00">~</text>
<text xml:space="preserve" text-anchor="middle" x="743.95" y="-301.53" font-family="Times New Roman,serif" font-size="14.00">Normal</text>
</g>
<!-- gamma_0&#45;&gt;alpha -->
<g id="edge4" class="edge">
<title>gamma_0&#45;&gt;alpha</title>
<path fill="none" stroke="black" d="M708.34,-294.11C700.95,-289.5 692.97,-285.3 684.95,-282.43 527.74,-226.13 466.96,-305.99 310.95,-246.43 307.03,-244.93 303.13,-243.06 299.34,-240.96"/>
<polygon fill="black" stroke="black" points="301.23,-238.01 290.88,-235.75 297.56,-243.97 301.23,-238.01"/>
</g>
<!-- mu -->
<g id="node4" class="node">
<title>mu</title>
<ellipse fill="none" stroke="black" cx="468.95" cy="-205.77" rx="41.01" ry="40.66"/>
<text xml:space="preserve" text-anchor="middle" x="468.95" y="-217.22" font-family="Times New Roman,serif" font-size="14.00">mu</text>
<text xml:space="preserve" text-anchor="middle" x="468.95" y="-200.72" font-family="Times New Roman,serif" font-size="14.00">~</text>
<text xml:space="preserve" text-anchor="middle" x="468.95" y="-184.22" font-family="Times New Roman,serif" font-size="14.00">Normal</text>
</g>
<!-- obs_home -->
<g id="node15" class="node">
<title>obs_home</title>
<polygon fill="lightgrey" stroke="black" points="524.25,-66.28 524.25,-102.74 491.86,-128.52 446.05,-128.52 413.66,-102.74 413.66,-66.28 446.05,-40.5 491.86,-40.5 524.25,-66.28"/>
<text xml:space="preserve" text-anchor="middle" x="468.95" y="-95.96" font-family="Times New Roman,serif" font-size="14.00">obs_home</text>
<text xml:space="preserve" text-anchor="middle" x="468.95" y="-79.46" font-family="Times New Roman,serif" font-size="14.00">~</text>
<text xml:space="preserve" text-anchor="middle" x="468.95" y="-62.96" font-family="Times New Roman,serif" font-size="14.00">Potential</text>
</g>
<!-- mu&#45;&gt;obs_home -->
<g id="edge12" class="edge">
<title>mu&#45;&gt;obs_home</title>
<path fill="none" stroke="black" d="M468.95,-164.72C468.95,-156.91 468.95,-148.58 468.95,-140.38"/>
<polygon fill="black" stroke="black" points="472.45,-140.44 468.95,-130.44 465.45,-140.44 472.45,-140.44"/>
</g>
<!-- obs_away -->
<g id="node16" class="node">
<title>obs_away</title>
<polygon fill="lightgrey" stroke="black" points="395.53,-66.28 395.53,-102.74 364.15,-128.52 319.76,-128.52 288.38,-102.74 288.38,-66.28 319.76,-40.5 364.15,-40.5 395.53,-66.28"/>
<text xml:space="preserve" text-anchor="middle" x="341.95" y="-95.96" font-family="Times New Roman,serif" font-size="14.00">obs_away</text>
<text xml:space="preserve" text-anchor="middle" x="341.95" y="-79.46" font-family="Times New Roman,serif" font-size="14.00">~</text>
<text xml:space="preserve" text-anchor="middle" x="341.95" y="-62.96" font-family="Times New Roman,serif" font-size="14.00">Potential</text>
</g>
<!-- mu&#45;&gt;obs_away -->
<g id="edge15" class="edge">
<title>mu&#45;&gt;obs_away</title>
<path fill="none" stroke="black" d="M447.06,-171.02C439.86,-161.63 431.28,-151.97 421.95,-144.52 415.43,-139.31 412.03,-140.95 404.95,-136.52 399.01,-132.79 392.99,-128.57 387.15,-124.21"/>
<polygon fill="black" stroke="black" points="389.41,-121.53 379.35,-118.19 385.13,-127.08 389.41,-121.53"/>
</g>
<!-- delta_mid_def -->
<g id="node5" class="node">
<title>delta_mid_def</title>
<ellipse fill="none" stroke="black" cx="878.95" cy="-323.08" rx="67" ry="40.66"/>
<text xml:space="preserve" text-anchor="middle" x="878.95" y="-334.53" font-family="Times New Roman,serif" font-size="14.00">delta_mid_def</text>
<text xml:space="preserve" text-anchor="middle" x="878.95" y="-318.03" font-family="Times New Roman,serif" font-size="14.00">~</text>
<text xml:space="preserve" text-anchor="middle" x="878.95" y="-301.53" font-family="Times New Roman,serif" font-size="14.00">Normal</text>
</g>
<!-- beta -->
<g id="node14" class="node">
<title>beta</title>
<polygon fill="none" stroke="black" points="410.08,-234.52 319.83,-234.52 319.83,-177.02 410.08,-177.02 410.08,-234.52"/>
<text xml:space="preserve" text-anchor="middle" x="364.95" y="-217.22" font-family="Times New Roman,serif" font-size="14.00">beta</text>
<text xml:space="preserve" text-anchor="middle" x="364.95" y="-200.72" font-family="Times New Roman,serif" font-size="14.00">~</text>
<text xml:space="preserve" text-anchor="middle" x="364.95" y="-184.22" font-family="Times New Roman,serif" font-size="14.00">Deterministic</text>
</g>
<!-- delta_mid_def&#45;&gt;beta -->
<g id="edge6" class="edge">
<title>delta_mid_def&#45;&gt;beta</title>
<path fill="none" stroke="black" d="M831.89,-293.97C822.57,-289.43 812.66,-285.29 802.95,-282.43 638.56,-233.87 579.17,-307.37 418.95,-246.43 415.03,-244.93 411.13,-243.07 407.34,-240.97"/>
<polygon fill="black" stroke="black" points="409.23,-238.02 398.88,-235.76 405.56,-243.99 409.23,-238.02"/>
</g>
<!-- sigma_alpha -->
<g id="node6" class="node">
<title>sigma_alpha</title>
<ellipse fill="none" stroke="black" cx="487.95" cy="-323.08" rx="60.1" ry="40.66"/>
<text xml:space="preserve" text-anchor="middle" x="487.95" y="-334.53" font-family="Times New Roman,serif" font-size="14.00">sigma_alpha</text>
<text xml:space="preserve" text-anchor="middle" x="487.95" y="-318.03" font-family="Times New Roman,serif" font-size="14.00">~</text>
<text xml:space="preserve" text-anchor="middle" x="487.95" y="-301.53" font-family="Times New Roman,serif" font-size="14.00">Halfnormal</text>
</g>
<!-- sigma_alpha&#45;&gt;alpha -->
<g id="edge5" class="edge">
<title>sigma_alpha&#45;&gt;alpha</title>
<path fill="none" stroke="black" d="M445.05,-294.4C437.51,-290.09 429.62,-285.92 421.95,-282.43 374.75,-260.93 357.11,-270.08 310.95,-246.43 307.74,-244.78 304.52,-242.95 301.33,-241.01"/>
<polygon fill="black" stroke="black" points="303.49,-238.24 293.2,-235.73 299.68,-244.11 303.49,-238.24"/>
</g>
<!-- delta_def -->
<g id="node7" class="node">
<title>delta_def</title>
<ellipse fill="none" stroke="black" cx="1010.95" cy="-323.08" rx="46.85" ry="40.66"/>
<text xml:space="preserve" text-anchor="middle" x="1010.95" y="-334.53" font-family="Times New Roman,serif" font-size="14.00">delta_def</text>
<text xml:space="preserve" text-anchor="middle" x="1010.95" y="-318.03" font-family="Times New Roman,serif" font-size="14.00">~</text>
<text xml:space="preserve" text-anchor="middle" x="1010.95" y="-301.53" font-family="Times New Roman,serif" font-size="14.00">Normal</text>
</g>
<!-- delta_def&#45;&gt;beta -->
<g id="edge8" class="edge">
<title>delta_def&#45;&gt;beta</title>
<path fill="none" stroke="black" d="M977.67,-294.12C970.56,-289.45 962.81,-285.22 954.95,-282.43 729.99,-202.44 643.22,-328.35 418.95,-246.43 414.83,-244.92 410.75,-243 406.79,-240.81"/>
<polygon fill="black" stroke="black" points="408.87,-237.98 398.52,-235.72 405.2,-243.94 408.87,-237.98"/>
</g>
<!-- delta_0 -->
<g id="node8" class="node">
<title>delta_0</title>
<ellipse fill="none" stroke="black" cx="1116.95" cy="-323.08" rx="41.01" ry="40.66"/>
<text xml:space="preserve" text-anchor="middle" x="1116.95" y="-334.53" font-family="Times New Roman,serif" font-size="14.00">delta_0</text>
<text xml:space="preserve" text-anchor="middle" x="1116.95" y="-318.03" font-family="Times New Roman,serif" font-size="14.00">~</text>
<text xml:space="preserve" text-anchor="middle" x="1116.95" y="-301.53" font-family="Times New Roman,serif" font-size="14.00">Normal</text>
</g>
<!-- delta_0&#45;&gt;beta -->
<g id="edge9" class="edge">
<title>delta_0&#45;&gt;beta</title>
<path fill="none" stroke="black" d="M1087.61,-294.06C1081.23,-289.39 1074.2,-285.18 1066.95,-282.43 797.31,-180 690.45,-343.83 418.95,-246.43 414.82,-244.94 410.74,-243.04 406.77,-240.86"/>
<polygon fill="black" stroke="black" points="408.85,-238.03 398.5,-235.79 405.19,-244 408.85,-238.03"/>
</g>
<!-- sigma_beta -->
<g id="node9" class="node">
<title>sigma_beta</title>
<ellipse fill="none" stroke="black" cx="1231.95" cy="-323.08" rx="55.86" ry="40.66"/>
<text xml:space="preserve" text-anchor="middle" x="1231.95" y="-334.53" font-family="Times New Roman,serif" font-size="14.00">sigma_beta</text>
<text xml:space="preserve" text-anchor="middle" x="1231.95" y="-318.03" font-family="Times New Roman,serif" font-size="14.00">~</text>
<text xml:space="preserve" text-anchor="middle" x="1231.95" y="-301.53" font-family="Times New Roman,serif" font-size="14.00">Halfnormal</text>
</g>
<!-- sigma_beta&#45;&gt;beta -->
<g id="edge10" class="edge">
<title>sigma_beta&#45;&gt;beta</title>
<path fill="none" stroke="black" d="M1192.53,-293.8C1184.41,-289.22 1175.67,-285.1 1166.95,-282.43 1007.87,-233.57 575.8,-302.04 418.95,-246.43 414.76,-244.94 410.61,-243.01 406.59,-240.8"/>
<polygon fill="black" stroke="black" points="408.54,-237.89 398.19,-235.64 404.87,-243.86 408.54,-237.89"/>
</g>
<!-- home_advantage -->
<g id="node10" class="node">
<title>home_advantage</title>
<ellipse fill="none" stroke="black" cx="604.95" cy="-205.77" rx="76.54" ry="40.66"/>
<text xml:space="preserve" text-anchor="middle" x="604.95" y="-217.22" font-family="Times New Roman,serif" font-size="14.00">home_advantage</text>
<text xml:space="preserve" text-anchor="middle" x="604.95" y="-200.72" font-family="Times New Roman,serif" font-size="14.00">~</text>
<text xml:space="preserve" text-anchor="middle" x="604.95" y="-184.22" font-family="Times New Roman,serif" font-size="14.00">Normal</text>
</g>
<!-- home_advantage&#45;&gt;obs_home -->
<g id="edge11" class="edge">
<title>home_advantage&#45;&gt;obs_home</title>
<path fill="none" stroke="black" d="M565.98,-170.59C549.81,-156.41 530.93,-139.86 514.15,-125.14"/>
<polygon fill="black" stroke="black" points="516.56,-122.6 506.73,-118.64 511.94,-127.86 516.56,-122.6"/>
</g>
<!-- alpha&#45;&gt;obs_home -->
<g id="edge13" class="edge">
<title>alpha&#45;&gt;obs_home</title>
<path fill="none" stroke="black" d="M274.9,-176.63C284.13,-164.61 296.5,-151.72 310.95,-144.52 348.48,-125.81 366,-152.03 404.95,-136.52 411.87,-133.76 418.64,-130 425.03,-125.75"/>
<polygon fill="black" stroke="black" points="426.78,-128.81 432.86,-120.13 422.7,-123.12 426.78,-128.81"/>
</g>
<!-- alpha&#45;&gt;obs_away -->
<g id="edge16" class="edge">
<title>alpha&#45;&gt;obs_away</title>
<path fill="none" stroke="black" d="M276.88,-176.81C286.15,-163.81 297.43,-147.98 307.98,-133.18"/>
<polygon fill="black" stroke="black" points="310.6,-135.54 313.55,-125.36 304.9,-131.47 310.6,-135.54"/>
</g>
<!-- beta_offset -->
<g id="node12" class="node">
<title>beta_offset</title>
<ellipse fill="none" stroke="black" cx="355.95" cy="-323.08" rx="53.74" ry="40.66"/>
<text xml:space="preserve" text-anchor="middle" x="355.95" y="-334.53" font-family="Times New Roman,serif" font-size="14.00">beta_offset</text>
<text xml:space="preserve" text-anchor="middle" x="355.95" y="-318.03" font-family="Times New Roman,serif" font-size="14.00">~</text>
<text xml:space="preserve" text-anchor="middle" x="355.95" y="-301.53" font-family="Times New Roman,serif" font-size="14.00">Normal</text>
</g>
<!-- beta_offset&#45;&gt;beta -->
<g id="edge7" class="edge">
<title>beta_offset&#45;&gt;beta</title>
<path fill="none" stroke="black" d="M359.08,-282.08C359.99,-270.37 360.99,-257.58 361.9,-245.93"/>
<polygon fill="black" stroke="black" points="365.36,-246.48 362.65,-236.24 358.39,-245.93 365.36,-246.48"/>
</g>
<!-- alpha_offset -->
<g id="node13" class="node">
<title>alpha_offset</title>
<ellipse fill="none" stroke="black" cx="225.95" cy="-323.08" rx="58.51" ry="40.66"/>
<text xml:space="preserve" text-anchor="middle" x="225.95" y="-334.53" font-family="Times New Roman,serif" font-size="14.00">alpha_offset</text>
<text xml:space="preserve" text-anchor="middle" x="225.95" y="-318.03" font-family="Times New Roman,serif" font-size="14.00">~</text>
<text xml:space="preserve" text-anchor="middle" x="225.95" y="-301.53" font-family="Times New Roman,serif" font-size="14.00">Normal</text>
</g>
<!-- alpha_offset&#45;&gt;alpha -->
<g id="edge3" class="edge">
<title>alpha_offset&#45;&gt;alpha</title>
<path fill="none" stroke="black" d="M236.54,-282.72C239.75,-270.76 243.28,-257.62 246.49,-245.68"/>
<polygon fill="black" stroke="black" points="249.84,-246.71 249.06,-236.15 243.08,-244.89 249.84,-246.71"/>
</g>
<!-- beta&#45;&gt;obs_home -->
<g id="edge14" class="edge">
<title>beta&#45;&gt;obs_home</title>
<path fill="none" stroke="black" d="M389.34,-176.81C401.39,-162.98 416.24,-145.96 429.83,-130.37"/>
<polygon fill="black" stroke="black" points="432.3,-132.86 436.24,-123.03 427.02,-128.26 432.3,-132.86"/>
</g>
<!-- beta&#45;&gt;obs_away -->
<g id="edge17" class="edge">
<title>beta&#45;&gt;obs_away</title>
<path fill="none" stroke="black" d="M359.56,-176.81C357.42,-165.73 354.89,-152.6 352.42,-139.8"/>
<polygon fill="black" stroke="black" points="355.9,-139.34 350.57,-130.19 349.03,-140.67 355.9,-139.34"/>
</g>
</g>
</svg>
